<svg id="Capa_1" data-name="Capa 1" xmlns="http://www.w3.org/2000/svg" width="2030.64" height="728.25" viewBox="0 0 2030.64 728.25">
  <defs>
    <style>
      .cls-1 {
        fill: #002fa1;
      }

      .cls-2, .cls-3 {
        fill: #fff;
      }

      .cls-2 {
        fill-rule: evenodd;
      }
    </style>
  </defs>
  <g>
    <rect class="cls-1" width="2030.64" height="728.25"/>
    <g>
      <path class="cls-2" d="M347.45-1030.65c-24.46,0-43,18.45-43,43v289.27h286.4c24.43,0,45.82-21.31,45.82-45.83v-286.4ZM559.38-790.07l-177.54,31.5V-936.13L559.38-970.5Z" transform="translate(-143.36 1228.59)"/>
      <g>
        <path class="cls-3" d="M1203-935.45c-52.15.12-89.12,37.64-89.27,98.61,0,55.53,44.34,90.07,89.62,90.1,26.94,0,43.7-4.15,53.44-12.14v-30.85c-13.86,6.82-30.28,9-44.8,9-27.92.05-50.37-15.21-54-39.67l-.31-2.18h32.62c30.62,0,52.23-2.77,65.84-9.53s19.5-17,19.53-33.54c0-43.08-34.8-69.74-72.63-69.77Zm21.26,79.94c-8.46,3-22,4.09-44,4.12h-22.69l.12-2,.34-6.22c1-22,17.33-41.27,41-41.27,10.94,0,20.16,2.41,26.75,7.33s10.37,12.63,10.33,22.34c.2,7.08-3.21,12.8-11.74,15.67Zm73.88-9.54v115.19H1341v-107c0-14.29,2.89-24.63,8.76-31.5s14.58-9.85,25.29-9.85a64.55,64.55,0,0,1,11.63,1v-33.91c-5.39-2.72-12.44-4.47-21.68-4.47-47.92.11-66.62,34.05-66.77,70.51ZM735.52-982v232h43V-982Zm157.87,46.51c-57,.12-81.83,39-82,77.33v108.26h42.5V-855c0-13.54,3.52-24.43,9.85-31.9s15.41-11.55,25.92-11.52c12.26,0,22.31,3.55,29.19,11.37s10.34,19.62,10.34,35.46v101.7H971.6v-105.8c-.08-51.58-35.2-79.67-78.19-79.82ZM1046.64-982h-42.25l.15,167.46c.23,42.47,21.62,67.56,67.82,67.73,19.62,0,31.42-6.38,36.29-16.55v-26.41c-7.62,3.38-18,4.9-30.76,4.9-9.57,0-17.59-2.43-23.06-8.25s-8.19-14.63-8.19-26.92v-78.39h37c18.1,0,25.69-11.54,25.72-20v-17h-62.75Z" transform="translate(-143.36 1228.59)"/>
        <g>
          <path class="cls-3" d="M1744.83-865.48v115.05h42.73v-106.8c0-14.32,2.86-24.63,8.71-31.45s14.57-9.85,25.2-9.82a65.35,65.35,0,0,1,11.69.94v-33.85c-5.38-2.72-12.44-4.47-21.63-4.47C1763.7-935.76,1745-901.88,1744.83-865.48Z" transform="translate(-143.36 1228.59)"/>
          <path class="cls-3" d="M1640-935.91c-56.08,0-86,43.8-86,98.35,0,48.15,29.9,89,82.15,89,56.1,0,86-40.78,86-95.34,0-48.15-30-91.94-82.2-91.94Zm.09,148.56c-29.53,0-42.47-19.56-42.47-56.71,0-30.87,12.94-53.07,38.52-53.07,29.21,0,42.5,22.2,42.5,59.69,0,30.53-12.63,50.12-38.52,50.12Z" transform="translate(-143.36 1228.59)"/>
          <path class="cls-3" d="M1446.09-831.48l.28,2.17c3.67,24.43,22.57,45.83,50.46,45.74,14.52,0,30.94-2.18,44.77-9v29.12c-9.71,7.94-26.47,16-53.36,16-45.25,0-90.53-34.56-90.53-90,.11-60.92,38.09-98.44,90.16-98.53.05,0,.05,0,.05,0s.18,0,.29,0c26.9,0,43.65,7.77,53.36,15.67v29.47c-13.83-6.81-30.24-9.05-44.76-9.05-27.76,0-47.06,21.08-50.87,45.22a76.92,76.92,0,0,0,.12,23.09Z" transform="translate(-143.36 1228.59)"/>
          <path class="cls-3" d="M1933.39-934.13c-61.68,0-87.66,42.07-87.66,102.76v101.53c0,19.65,15,31.56,30.5,31.56h13.63V-770c8.77,15.58,24.69,24.57,44.13,24.57,51,0,78.88-39.84,78.88-98.55,0-46.08-33.11-90.19-79.5-90.19Zm-1,151c-26,0-43.17-20.68-43.17-57.36,0-31.51,13.32-53.22,37.32-53.22,27.92,0,41.56,18.65,41.56,61.72,0,29.19-14.64,48.86-35.75,48.86Z" transform="translate(-143.36 1228.59)"/>
        </g>
      </g>
    </g>
  </g>
</svg>
